<svg width="866" height="633" viewBox="0 0 866 633" fill="none" xmlns="http://www.w3.org/2000/svg">
<path d="M629.353 245.5C653.753 149.9 796.853 10 865.353 -48C919.52 73.6667 1027.55 326.3 1026.35 363.5C1024.85 410 922.353 542 695.353 585C468.353 628 554.353 438.5 552.353 440C550.353 441.5 598.853 365 629.353 245.5Z" fill="#FFBA93"/>
<path d="M565.645 324.968C640.663 330.776 664.023 334.281 735.735 287.613C806.333 155.919 712.456 173.764 664.858 161.78C621.424 150.845 639.124 93.1736 567.174 75.6167C511.357 61.9965 441.455 116.196 391.636 166.253C341.816 216.311 349.829 333.171 409.675 348.194C466.084 362.353 466.193 317.269 565.645 324.968Z" fill="#B3FFF1"/>
<path d="M459.281 206.087C335.88 211.918 101.677 69.5436 0 -2.3726L889.795 -67C887.878 120.323 885.466 411.595 885.904 551.961C889.173 569.087 890.558 586.334 889.795 603.57C887.255 660.955 886.145 629.456 885.904 551.961C850.927 368.728 600.348 199.421 459.281 206.087Z" fill="#FFBB54" fill-opacity="0.6"/>
</svg>
